<svg version="1.1" id="Layer_1" xmlns="http://www.w3.org/2000/svg" xmlns:xlink="http://www.w3.org/1999/xlink" x="0px" y="0px"
	 width="100%" viewBox="0 0 986 406" enable-background="new 0 0 986 406" xml:space="preserve">
<path fill="#A0AB8A" opacity="1.000000" stroke="none" 
	d="
M756.000000,407.000000 
	C504.000000,407.000000 252.500000,407.000000 1.000000,407.000000 
	C1.000000,271.666656 1.000000,136.333328 1.000000,1.000000 
	C329.666656,1.000000 658.333313,1.000000 987.000000,1.000000 
	C987.000000,136.333328 987.000000,271.666656 987.000000,407.000000 
	C910.166687,407.000000 833.333313,407.000000 756.000000,407.000000 
M613.153687,340.835968 
	C606.927979,337.193939 601.440186,339.431458 595.830994,344.027435 
	C595.437927,339.173035 592.974365,338.985626 589.803223,339.584595 
	C587.532776,340.013428 585.131897,339.728088 582.843994,340.099335 
	C581.786621,340.270905 580.860107,341.249237 579.874268,341.861755 
	C580.507996,342.647247 580.991455,343.859833 581.801331,344.144897 
	C585.474243,345.437805 586.264709,348.153137 586.217163,351.632050 
	C586.119141,358.796783 586.164246,365.963959 586.199768,373.129852 
	C586.214783,376.158600 585.979675,378.824310 582.032532,379.271576 
	C581.347168,379.349213 580.820801,380.830139 580.221069,381.662933 
	C581.006409,382.103180 581.786194,382.913727 582.577942,382.925568 
	C589.358521,383.026947 596.141357,382.983673 602.923462,382.983673 
	C603.169617,382.434570 603.415771,381.885498 603.661926,381.336395 
	C602.531799,380.560242 601.478394,379.289520 600.257263,379.100037 
	C596.500061,378.516998 595.234680,376.224518 595.216248,372.831543 
	C595.183716,366.832184 595.337769,360.828186 595.150208,354.834412 
	C594.981506,349.443115 597.780090,346.735931 600.590393,345.878448 
	C604.010132,348.475922 606.032959,351.051758 608.525757,351.641571 
	C611.611755,352.371765 613.005615,349.528351 613.402771,346.588684 
	C613.490784,345.937531 613.740479,345.308167 614.790039,344.912415 
	C616.725281,345.049255 618.660522,345.186066 621.098572,345.358459 
	C621.098572,350.157135 621.016235,354.612183 621.118652,359.062988 
	C621.255981,365.030182 621.319946,371.012573 621.825989,376.953461 
	C622.207458,381.431122 625.370911,383.866394 629.617554,383.837341 
	C633.347412,383.811829 637.140259,382.980133 640.753906,381.965546 
	C641.860352,381.654877 642.466858,379.563385 643.836304,377.471924 
	C640.487549,377.724701 638.839050,377.933746 637.188049,377.956024 
	C633.791809,378.001892 630.957642,376.615204 630.850586,373.033722 
	C630.575439,363.830383 630.758667,354.613373 630.758667,344.936523 
	C634.520874,344.936523 638.108521,344.936523 642.103760,344.936523 
	C642.020264,343.053497 641.958374,341.658875 641.870728,339.682068 
	C637.737366,339.682068 634.012512,339.682068 629.764893,339.682068 
	C629.764893,335.169952 629.764893,331.259369 629.764893,327.284607 
	C626.789978,327.284607 624.367554,327.284607 621.590393,327.284607 
	C621.351746,331.590485 621.127686,335.633820 620.910156,339.559235 
	C618.217468,339.936829 616.104980,340.233063 613.153687,340.835968 
M388.297211,379.051819 
	C383.594116,378.233307 381.463593,374.932678 379.890839,370.798767 
	C374.040955,355.422424 368.110260,340.075836 362.032959,324.788422 
	C361.346466,323.061523 359.537811,321.780731 358.249512,320.293060 
	C356.963562,321.815948 355.173798,323.137177 354.470795,324.893372 
	C348.480286,339.858398 342.650421,354.888275 336.858490,369.931885 
	C335.229248,374.163666 332.990936,377.561371 328.329224,378.976715 
	C327.253448,379.303345 326.547424,380.847656 324.656952,382.970673 
	C333.539734,382.970673 340.672272,383.014771 347.802246,382.900330 
	C348.490875,382.889252 349.652954,381.947327 349.716583,381.344727 
	C349.791321,380.636780 349.078857,379.458710 348.400238,379.140411 
	C347.071075,378.517090 345.323273,378.668030 344.132080,377.902191 
	C342.935608,377.132996 341.224823,375.403717 341.440338,374.501556 
	C342.399567,370.486206 343.249420,366.074615 345.623016,362.924652 
	C346.795197,361.369080 351.182129,362.146515 354.120758,362.036224 
	C357.113434,361.923920 360.124420,361.874573 363.105438,362.094940 
	C364.230377,362.178162 365.911682,362.825500 366.281250,363.675690 
	C368.174225,368.030243 369.721985,372.534912 371.497040,377.271606 
	C369.353516,377.985748 367.882477,378.303223 366.583740,378.960907 
	C365.462494,379.528748 364.537201,380.483490 363.525299,381.267212 
	C364.695129,381.847809 365.859344,382.916016 367.035675,382.929443 
	C374.354858,383.013153 381.676758,382.860504 389.668427,382.885620 
	C392.415344,382.722687 395.182434,382.274841 397.904236,382.467255 
	C401.490601,382.720795 405.044708,383.944061 408.606781,383.918579 
	C415.667816,383.868073 420.948761,379.292206 422.112213,372.921570 
	C423.347076,366.160034 420.700531,361.574341 413.569214,358.456604 
	C409.922943,356.862518 406.142578,355.576569 402.485107,354.006348 
	C399.450165,352.703430 397.851227,349.907288 399.283295,347.168915 
	C400.284271,345.254944 403.175751,343.434662 405.378418,343.227631 
	C410.184082,342.775940 413.273193,345.812347 415.360657,350.068451 
	C416.017639,351.407959 417.561890,352.312317 418.700043,353.415863 
	C419.874054,348.876343 420.016205,345.231598 419.780670,341.611420 
	C419.716492,340.624786 418.532349,338.907532 417.833679,338.892975 
	C412.317261,338.778076 406.725525,338.490601 401.288940,339.228455 
	C393.382507,340.301544 388.251617,349.742188 392.251038,356.251526 
	C394.251007,359.506622 398.143951,361.819427 401.576569,363.907776 
	C404.650299,365.777802 408.529297,366.348663 411.538910,368.289734 
	C413.163971,369.337830 414.769257,372.238129 414.469391,373.971649 
	C414.122742,375.975372 411.911255,378.759003 410.075989,379.145477 
	C407.291412,379.731812 403.543091,379.415710 401.282715,377.887604 
	C398.451660,375.973602 396.792480,372.376099 394.453369,369.654877 
	C393.725037,368.807587 392.431488,368.446136 391.396667,367.862213 
	C390.932007,368.792084 390.211914,369.679962 390.050903,370.659729 
	C389.581451,373.517090 389.335388,376.411163 388.297211,379.051819 
M492.722961,31.619408 
	C478.067902,31.848825 463.845123,34.686558 450.603516,40.781570 
	C412.575897,58.285358 388.919159,87.416832 381.889984,129.031769 
	C372.552704,184.311401 405.095703,238.672806 458.080231,256.752319 
	C461.834259,258.033264 463.384216,259.601593 463.223846,263.721619 
	C462.887024,272.373352 463.111450,281.047455 463.129364,289.712311 
	C463.135590,292.732605 462.816315,296.372711 467.241638,296.156830 
	C471.442078,295.951935 470.541687,292.226166 470.581787,289.574829 
	C470.697662,281.911469 470.602509,274.245087 470.641998,266.580200 
	C470.651154,264.803314 470.866608,263.027496 471.021790,260.739990 
	C475.155304,261.356232 478.740356,261.925964 482.335846,262.419983 
	C492.373627,263.799103 492.368927,263.786743 492.377747,274.036774 
	C492.383057,280.201843 492.198425,286.380920 492.600220,292.520905 
	C492.686676,293.841949 494.778778,295.689789 496.234863,296.018036 
	C497.118073,296.217102 499.116821,294.160492 499.600586,292.765656 
	C500.223816,290.968628 499.867523,288.819733 499.871460,286.822296 
	C499.886780,279.053894 499.877747,271.285431 499.877747,263.482483 
	C507.305725,262.593811 513.971313,261.796326 521.059082,260.948334 
	C521.183899,263.299133 521.354126,265.095184 521.361816,266.891937 
	C521.395203,274.723541 521.311768,282.556335 521.424255,290.386475 
	C521.461060,292.945404 521.092468,296.243896 525.081909,296.218597 
	C528.918396,296.194214 528.847107,293.124603 528.859131,290.418610 
	C528.897644,281.753876 529.101990,273.080536 528.782959,264.427490 
	C528.623413,260.100037 529.926880,258.191589 534.213928,256.666321 
	C563.044128,246.408875 585.047974,227.699860 598.881287,200.474304 
	C615.786011,167.203888 616.455688,133.109390 601.059204,98.879524 
	C582.449829,57.506611 539.147522,30.290606 492.722961,31.619408 
M442.127747,372.910370 
	C442.124878,366.583801 442.036896,360.255798 442.146698,353.931183 
	C442.230621,349.096893 446.418091,345.313812 451.716583,345.018799 
	C456.203186,344.768982 458.806396,346.867126 459.201569,352.388855 
	C459.723022,359.674530 459.765442,367.022949 459.440491,374.318878 
	C459.367401,375.960602 456.953339,377.522552 455.562134,379.071991 
	C454.714447,380.016083 453.761902,380.866028 452.042053,382.560730 
	C460.615875,382.560730 467.626709,382.560730 475.578979,382.560730 
	C474.553101,380.955231 474.119293,379.469238 473.445465,379.350983 
	C468.583008,378.497833 468.859253,374.958710 468.789032,371.353241 
	C468.643433,363.880646 468.660461,356.379761 467.968292,348.950317 
	C467.326813,342.064392 463.336304,338.415314 456.699921,339.076843 
	C451.837982,339.561493 447.139618,341.687164 441.864716,343.228607 
	C441.864716,334.635071 441.864716,325.438477 441.864716,315.810059 
	C436.685944,316.059875 432.210938,316.185303 427.757629,316.565125 
	C426.841156,316.643311 426.005707,317.671417 425.132904,318.261627 
	C425.958801,319.083557 426.720306,320.529572 427.621460,320.622559 
	C432.279175,321.103363 433.177856,324.091003 433.171082,327.986328 
	C433.144653,343.136566 433.147705,358.286957 433.174072,373.437195 
	C433.179077,376.326263 432.796021,378.684265 429.192505,379.235382 
	C428.278320,379.375122 427.583771,380.951050 425.814087,382.988892 
	C433.681213,382.988892 439.964172,383.053284 446.242554,382.912689 
	C447.089417,382.893738 447.913208,381.843903 448.747681,381.271454 
	C448.031464,380.525146 447.282440,379.807251 446.605682,379.026733 
	C445.104462,377.295410 443.639526,375.532654 442.127747,372.910370 
M512.201355,378.715546 
	C504.918518,378.863007 499.392914,375.715729 495.440948,369.699310 
	C489.069366,359.999359 489.246429,341.593781 495.770691,332.073212 
	C502.866760,321.718353 516.346069,322.456635 521.997498,333.594757 
	C523.265198,336.093292 523.809326,338.957458 525.061401,341.466187 
	C525.586365,342.518158 527.086914,343.083282 528.143921,343.869720 
	C528.761536,342.881134 529.886536,341.905670 529.912354,340.901825 
	C530.054016,335.410065 529.897095,329.911377 529.901550,324.415100 
	C529.903992,321.369781 528.480225,320.806000 525.721252,321.453278 
	C523.736084,321.918976 521.402161,322.370850 519.569214,321.771820 
	C508.129730,318.033478 497.795990,319.697998 488.952484,327.927704 
	C476.481232,339.533295 476.250244,364.548248 488.269653,376.575806 
	C501.204712,389.519653 523.824158,386.340393 530.903748,370.472778 
	C531.433350,369.285767 530.577271,367.480499 530.365356,365.962646 
	C529.174622,366.712097 527.473267,367.180023 526.878723,368.258240 
	C523.785645,373.867188 519.331360,377.444031 512.201355,378.715546 
M545.930176,383.986664 
	C551.080627,382.839264 556.231140,381.691833 562.047852,380.395996 
	C565.149475,384.061707 569.612366,385.327271 574.687195,382.980560 
	C575.578369,382.568481 576.165710,381.499329 576.893311,380.733582 
	C576.135498,380.068970 575.445862,378.941528 574.608276,378.818085 
	C570.485413,378.210388 569.750854,375.578949 569.832031,372.005066 
	C569.986755,365.189301 570.074768,358.364471 569.895386,351.551178 
	C569.755432,346.240051 567.913757,341.556183 562.318054,339.876373 
	C555.927307,337.957947 549.427917,337.954956 543.583557,341.635620 
	C541.602905,342.883026 539.701843,344.991882 538.896729,347.132904 
	C538.279907,348.773254 538.792053,351.794556 539.996216,352.895386 
	C541.210754,354.005676 544.202881,354.202728 545.841492,353.486023 
	C547.112366,352.930115 547.660583,350.403717 548.227661,348.655151 
	C548.703735,347.187317 548.367065,344.464661 549.044983,344.235626 
	C551.264160,343.485870 554.763428,342.542847 555.975281,343.646088 
	C558.294128,345.757111 559.813477,349.095764 560.736450,352.200836 
	C561.059021,353.285950 558.965576,355.868286 557.426331,356.580780 
	C552.926331,358.663727 548.044128,359.911987 543.509460,361.931335 
	C538.398499,364.207306 535.674377,368.944885 536.264160,373.889771 
	C536.896301,379.189728 539.572266,382.845276 545.930176,383.986664 
z"/>
<path fill="#FAFAF8" opacity="1.000000" stroke="none" 
	d="
M493.187073,31.542122 
	C539.147522,30.290606 582.449829,57.506611 601.059204,98.879524 
	C616.455688,133.109390 615.786011,167.203888 598.881287,200.474304 
	C585.047974,227.699860 563.044128,246.408875 534.213928,256.666321 
	C529.926880,258.191589 528.623413,260.100037 528.782959,264.427490 
	C529.101990,273.080536 528.897644,281.753876 528.859131,290.418610 
	C528.847107,293.124603 528.918396,296.194214 525.081909,296.218597 
	C521.092468,296.243896 521.461060,292.945404 521.424255,290.386475 
	C521.311768,282.556335 521.395203,274.723541 521.361816,266.891937 
	C521.354126,265.095184 521.183899,263.299133 521.059082,260.948334 
	C513.971313,261.796326 507.305725,262.593811 499.877747,263.482483 
	C499.877747,271.285431 499.886780,279.053894 499.871460,286.822296 
	C499.867523,288.819733 500.223816,290.968628 499.600586,292.765656 
	C499.116821,294.160492 497.118073,296.217102 496.234863,296.018036 
	C494.778778,295.689789 492.686676,293.841949 492.600220,292.520905 
	C492.198425,286.380920 492.383057,280.201843 492.377747,274.036774 
	C492.368927,263.786743 492.373627,263.799103 482.335846,262.419983 
	C478.740356,261.925964 475.155304,261.356232 471.021790,260.739990 
	C470.866608,263.027496 470.651154,264.803314 470.641998,266.580200 
	C470.602509,274.245087 470.697662,281.911469 470.581787,289.574829 
	C470.541687,292.226166 471.442078,295.951935 467.241638,296.156830 
	C462.816315,296.372711 463.135590,292.732605 463.129364,289.712311 
	C463.111450,281.047455 462.887024,272.373352 463.223846,263.721619 
	C463.384216,259.601593 461.834259,258.033264 458.080231,256.752319 
	C405.095703,238.672806 372.552704,184.311401 381.889984,129.031769 
	C388.919159,87.416832 412.575897,58.285358 450.603516,40.781570 
	C463.845123,34.686558 478.067902,31.848825 493.187073,31.542122 
M406.974213,85.562958 
	C383.720306,121.312767 380.820496,158.718613 399.729767,196.877563 
	C412.806091,223.265625 434.181427,240.918198 463.123352,250.600082 
	C463.123352,245.452515 462.801453,241.281860 463.199402,237.181046 
	C463.784424,231.152283 462.862793,226.435410 456.023346,224.699814 
	C454.344818,224.273895 452.912048,222.832047 451.399048,221.808853 
	C436.977112,212.055786 428.999176,198.919464 429.956085,181.057159 
	C430.130798,177.795074 431.083069,175.255188 434.947998,175.929367 
	C458.066467,179.962006 473.914124,194.593063 471.686737,219.830017 
	C471.146637,225.949921 470.723724,232.099655 470.670715,238.239319 
	C470.530762,254.450821 470.623352,254.451736 487.090820,255.334198 
	C487.423462,255.352020 487.762177,255.322037 488.088989,255.372803 
	C491.004028,255.825470 492.389832,254.765579 492.381470,251.636673 
	C492.324524,230.310074 492.412170,208.982697 492.211456,187.657852 
	C492.199524,186.386765 490.323669,184.683884 488.916656,183.989975 
	C487.190887,183.138855 485.029053,183.209183 483.083679,182.760086 
	C467.981049,179.273605 459.135529,168.150894 459.125519,152.653030 
	C459.115967,137.824173 459.123016,122.995323 459.123505,108.166466 
	C459.123810,99.034790 461.857880,95.740509 470.688995,92.964821 
	C482.734528,89.178825 494.994385,88.830170 507.257233,90.770584 
	C514.248413,91.876823 521.096497,94.100540 527.878052,96.236839 
	C531.776245,97.464828 533.184937,100.552536 533.113037,104.833839 
	C532.880737,118.659088 533.049988,132.490753 533.012024,146.319809 
	C533.001099,150.311752 533.231079,154.367081 532.631897,158.283386 
	C530.461975,172.466583 520.696716,181.170944 503.969299,183.739075 
	C500.718262,184.238174 499.793671,185.418213 499.838165,188.466766 
	C499.964600,197.128937 499.876984,205.794205 499.877106,214.458252 
	C499.877289,226.621246 499.977570,238.785446 499.824982,250.946503 
	C499.777710,254.715759 500.958710,256.071075 504.796021,255.343307 
	C508.870087,254.570618 513.024963,254.216949 517.148865,253.715881 
	C520.013611,253.367798 521.571472,252.163864 521.414551,248.906830 
	C520.918396,238.607651 520.293762,228.294861 520.399414,217.994324 
	C520.458191,212.264145 520.933777,206.211365 522.847595,200.888611 
	C528.507446,185.147003 541.820374,179.087616 556.961792,175.939560 
	C560.046692,175.298172 562.010010,177.009811 561.938416,179.981628 
	C561.815063,185.102310 561.899780,190.399017 560.622009,195.288605 
	C556.881165,209.603195 547.117920,218.976761 534.232788,225.533203 
	C532.294312,226.519592 529.335510,228.104874 529.212524,229.606659 
	C528.664368,236.302490 528.974426,243.068588 528.974426,249.822403 
	C530.186279,249.888336 530.688660,249.999619 531.159241,249.920944 
	C531.806580,249.812683 532.444641,249.599579 533.061279,249.364716 
	C559.147705,239.428818 579.224487,222.463593 592.051270,197.597061 
	C607.438293,167.767242 608.817261,136.830582 596.164124,105.879578 
	C585.040833,78.670822 565.402771,59.031471 538.253723,47.515419 
	C512.344360,36.525223 485.923920,35.961246 459.352722,45.366974 
	C437.792114,52.999054 420.721863,66.551605 406.974213,85.562958 
M474.290466,110.117790 
	C472.048157,108.828804 469.805878,107.539810 466.619690,105.708237 
	C466.619690,111.165558 466.994812,115.646965 466.528381,120.039009 
	C465.890656,126.043968 468.074158,129.430679 473.382507,132.665436 
	C488.664825,141.978027 499.986694,154.634720 503.249084,173.082947 
	C503.433472,174.125671 505.422760,175.882812 505.796112,175.702332 
	C510.787170,173.289764 516.293701,171.282684 520.186951,167.603439 
	C521.631042,166.238785 519.859802,160.501511 518.444946,157.239807 
	C509.476929,136.565475 493.316193,122.458031 474.290466,110.117790 
M469.328125,164.878311 
	C475.468109,174.681778 485.056641,176.574966 495.537811,176.816650 
	C496.824158,161.885803 477.762238,141.699234 466.649689,138.138306 
	C467.239471,147.042313 464.838501,155.806854 469.328125,164.878311 
M489.779358,111.727928 
	C491.837982,113.403435 493.802856,115.219406 496.000671,116.686440 
	C496.900269,117.286903 498.767181,117.728546 499.406036,117.230865 
	C506.239532,111.907761 512.914917,106.381729 520.042542,100.578468 
	C504.522125,97.041832 489.201874,94.932877 472.925812,100.266907 
	C478.832458,104.250435 484.031342,107.756645 489.779358,111.727928 
M504.309601,123.521103 
	C511.497131,133.058197 518.684692,142.595291 525.386475,151.487823 
	C525.386475,137.723602 525.386475,123.044022 525.386475,107.678375 
	C517.074097,111.686951 510.055725,116.197540 504.309601,123.521103 
M439.786469,197.541504 
	C444.414673,208.481522 452.778870,215.269608 463.623383,219.935532 
	C467.473114,199.857773 452.374451,186.164352 436.496277,184.703995 
	C437.523010,188.928345 438.484924,192.885818 439.786469,197.541504 
M546.119080,207.572418 
	C551.696289,200.881546 555.172363,193.426651 554.841003,184.405792 
	C535.622131,188.264771 524.526672,203.206970 528.955750,220.980087 
	C534.853760,216.455429 540.270508,212.299957 546.119080,207.572418 
z"/>
<path fill="#FCFDFC" opacity="1.000000" stroke="none" 
	d="
M442.143768,373.346558 
	C443.639526,375.532654 445.104462,377.295410 446.605682,379.026733 
	C447.282440,379.807251 448.031464,380.525146 448.747681,381.271423 
	C447.913208,381.843903 447.089417,382.893738 446.242554,382.912689 
	C439.964172,383.053284 433.681213,382.988892 425.814087,382.988892 
	C427.583771,380.951050 428.278320,379.375122 429.192505,379.235382 
	C432.796021,378.684265 433.179077,376.326263 433.174072,373.437195 
	C433.147705,358.286957 433.144653,343.136566 433.171082,327.986328 
	C433.177856,324.091003 432.279175,321.103363 427.621460,320.622559 
	C426.720306,320.529572 425.958801,319.083557 425.132935,318.261658 
	C426.005707,317.671417 426.841156,316.643311 427.757629,316.565125 
	C432.210938,316.185303 436.685944,316.059875 441.864716,315.810059 
	C441.864716,325.438477 441.864716,334.635071 441.864716,343.228607 
	C447.139618,341.687164 451.837982,339.561493 456.699921,339.076843 
	C463.336304,338.415314 467.326813,342.064392 467.968292,348.950317 
	C468.660461,356.379761 468.643433,363.880646 468.789032,371.353241 
	C468.859253,374.958710 468.583008,378.497833 473.445465,379.350983 
	C474.119293,379.469238 474.553101,380.955231 475.578979,382.560730 
	C467.626709,382.560730 460.615875,382.560730 452.042053,382.560730 
	C453.761902,380.866028 454.714447,380.016083 455.562134,379.071991 
	C456.953339,377.522552 459.367401,375.960602 459.440491,374.318878 
	C459.765442,367.022949 459.723022,359.674530 459.201569,352.388855 
	C458.806396,346.867126 456.203186,344.768982 451.716583,345.018799 
	C446.418091,345.313812 442.230621,349.096893 442.146698,353.931183 
	C442.036896,360.255798 442.124878,366.583801 442.143768,373.346558 
z"/>
<path fill="#FDFDFC" opacity="1.000000" stroke="none" 
	d="
M388.997742,382.786224 
	C381.676758,382.860504 374.354858,383.013153 367.035675,382.929443 
	C365.859344,382.916016 364.695129,381.847809 363.525299,381.267212 
	C364.537201,380.483490 365.462494,379.528748 366.583740,378.960907 
	C367.882477,378.303223 369.353516,377.985748 371.497040,377.271606 
	C369.721985,372.534912 368.174225,368.030243 366.281250,363.675690 
	C365.911682,362.825500 364.230377,362.178162 363.105438,362.094940 
	C360.124420,361.874573 357.113434,361.923920 354.120758,362.036224 
	C351.182129,362.146515 346.795197,361.369080 345.623016,362.924652 
	C343.249420,366.074615 342.399567,370.486206 341.440338,374.501556 
	C341.224823,375.403717 342.935608,377.132996 344.132080,377.902191 
	C345.323273,378.668030 347.071075,378.517090 348.400238,379.140411 
	C349.078857,379.458710 349.791321,380.636780 349.716583,381.344727 
	C349.652954,381.947327 348.490875,382.889252 347.802246,382.900330 
	C340.672272,383.014771 333.539734,382.970673 324.656952,382.970673 
	C326.547424,380.847656 327.253448,379.303345 328.329224,378.976715 
	C332.990936,377.561371 335.229248,374.163666 336.858490,369.931885 
	C342.650421,354.888275 348.480286,339.858398 354.470795,324.893372 
	C355.173798,323.137177 356.963562,321.815948 358.249512,320.293060 
	C359.537811,321.780731 361.346466,323.061523 362.032959,324.788422 
	C368.110260,340.075836 374.040955,355.422424 379.890839,370.798767 
	C381.463593,374.932678 383.594116,378.233307 388.648682,379.520844 
	C388.999359,380.921997 388.998535,381.854095 388.997742,382.786224 
M355.524750,336.886627 
	C352.842743,343.344452 350.160767,349.802307 347.291626,356.710815 
	C353.206879,356.710815 358.023987,356.710815 363.755554,356.710815 
	C360.984283,349.785156 358.489868,343.551300 355.524750,336.886627 
z"/>
<path fill="#FCFCFB" opacity="1.000000" stroke="none" 
	d="
M512.594116,378.648254 
	C519.331360,377.444031 523.785645,373.867188 526.878723,368.258240 
	C527.473267,367.180023 529.174622,366.712097 530.365356,365.962646 
	C530.577271,367.480499 531.433350,369.285767 530.903748,370.472778 
	C523.824158,386.340393 501.204712,389.519653 488.269653,376.575806 
	C476.250244,364.548248 476.481232,339.533295 488.952484,327.927704 
	C497.795990,319.697998 508.129730,318.033478 519.569214,321.771820 
	C521.402161,322.370850 523.736084,321.918976 525.721252,321.453278 
	C528.480225,320.806000 529.903992,321.369781 529.901550,324.415100 
	C529.897095,329.911377 530.054016,335.410065 529.912354,340.901825 
	C529.886536,341.905670 528.761536,342.881134 528.143921,343.869720 
	C527.086914,343.083282 525.586365,342.518158 525.061401,341.466187 
	C523.809326,338.957458 523.265198,336.093292 521.997498,333.594757 
	C516.346069,322.456635 502.866760,321.718353 495.770691,332.073212 
	C489.246429,341.593781 489.069366,359.999359 495.440948,369.699310 
	C499.392914,375.715729 504.918518,378.863007 512.594116,378.648254 
z"/>
<path fill="#FDFDFC" opacity="1.000000" stroke="none" 
	d="
M545.509766,383.955627 
	C539.572266,382.845276 536.896301,379.189728 536.264160,373.889771 
	C535.674377,368.944885 538.398499,364.207306 543.509460,361.931335 
	C548.044128,359.911987 552.926331,358.663727 557.426331,356.580780 
	C558.965576,355.868286 561.059021,353.285950 560.736450,352.200836 
	C559.813477,349.095764 558.294128,345.757111 555.975281,343.646088 
	C554.763428,342.542847 551.264160,343.485870 549.044983,344.235626 
	C548.367065,344.464661 548.703735,347.187317 548.227661,348.655151 
	C547.660583,350.403717 547.112366,352.930115 545.841492,353.486023 
	C544.202881,354.202728 541.210754,354.005676 539.996216,352.895386 
	C538.792053,351.794556 538.279907,348.773254 538.896729,347.132904 
	C539.701843,344.991882 541.602905,342.883026 543.583557,341.635620 
	C549.427917,337.954956 555.927307,337.957947 562.318054,339.876373 
	C567.913757,341.556183 569.755432,346.240051 569.895386,351.551178 
	C570.074768,358.364471 569.986755,365.189301 569.832031,372.005066 
	C569.750854,375.578949 570.485413,378.210388 574.608276,378.818085 
	C575.445862,378.941528 576.135498,380.068970 576.893311,380.733582 
	C576.165710,381.499329 575.578369,382.568481 574.687195,382.980560 
	C569.612366,385.327271 565.149475,384.061707 562.047852,380.395996 
	C556.231140,381.691833 551.080627,382.839264 545.509766,383.955627 
M555.447083,361.874023 
	C552.668152,363.852356 549.209106,365.348328 547.345459,367.975861 
	C546.068604,369.776093 546.005676,373.869537 547.252136,375.616180 
	C548.449768,377.294495 552.208069,378.216370 554.525757,377.783142 
	C558.373413,377.063934 561.352417,374.602417 561.026978,369.813354 
	C560.818298,366.742828 560.987854,363.646576 560.987854,360.150482 
	C558.949890,360.748383 557.547485,361.159821 555.447083,361.874023 
z"/>
<path fill="#FCFCFB" opacity="1.000000" stroke="none" 
	d="
M389.333069,382.835938 
	C388.998535,381.854095 388.999359,380.921997 389.000977,379.640381 
	C389.335388,376.411163 389.581451,373.517090 390.050903,370.659729 
	C390.211914,369.679962 390.932007,368.792084 391.396667,367.862244 
	C392.431488,368.446136 393.725037,368.807587 394.453369,369.654877 
	C396.792480,372.376099 398.451660,375.973602 401.282715,377.887604 
	C403.543091,379.415710 407.291412,379.731812 410.075989,379.145477 
	C411.911255,378.759003 414.122742,375.975372 414.469391,373.971649 
	C414.769257,372.238129 413.163971,369.337830 411.538910,368.289734 
	C408.529297,366.348663 404.650299,365.777802 401.576569,363.907776 
	C398.143951,361.819427 394.251007,359.506622 392.251038,356.251526 
	C388.251617,349.742188 393.382507,340.301544 401.288940,339.228455 
	C406.725525,338.490601 412.317261,338.778076 417.833679,338.892975 
	C418.532349,338.907532 419.716492,340.624786 419.780670,341.611420 
	C420.016205,345.231598 419.874054,348.876343 418.700043,353.415863 
	C417.561890,352.312317 416.017639,351.407959 415.360657,350.068451 
	C413.273193,345.812347 410.184082,342.775940 405.378418,343.227631 
	C403.175751,343.434662 400.284271,345.254944 399.283295,347.168915 
	C397.851227,349.907288 399.450165,352.703430 402.485107,354.006348 
	C406.142578,355.576569 409.922943,356.862518 413.569214,358.456604 
	C420.700531,361.574341 423.347076,366.160034 422.112213,372.921570 
	C420.948761,379.292206 415.667816,383.868073 408.606781,383.918579 
	C405.044708,383.944061 401.490601,382.720795 397.904236,382.467255 
	C395.182434,382.274841 392.415344,382.722687 389.333069,382.835938 
z"/>
<path fill="#FCFCFB" opacity="1.000000" stroke="none" 
	d="
M613.915771,344.668793 
	C613.740479,345.308167 613.490784,345.937531 613.402771,346.588684 
	C613.005615,349.528351 611.611755,352.371765 608.525757,351.641571 
	C606.032959,351.051758 604.010132,348.475922 600.590393,345.878448 
	C597.780090,346.735931 594.981506,349.443115 595.150208,354.834412 
	C595.337769,360.828186 595.183716,366.832184 595.216248,372.831543 
	C595.234680,376.224518 596.500061,378.516998 600.257263,379.100037 
	C601.478394,379.289520 602.531799,380.560242 603.661926,381.336395 
	C603.415771,381.885498 603.169617,382.434570 602.923462,382.983673 
	C596.141357,382.983673 589.358521,383.026947 582.577942,382.925568 
	C581.786194,382.913727 581.006409,382.103180 580.221069,381.662933 
	C580.820801,380.830139 581.347168,379.349213 582.032532,379.271576 
	C585.979675,378.824310 586.214783,376.158600 586.199768,373.129852 
	C586.164246,365.963959 586.119141,358.796783 586.217163,351.632050 
	C586.264709,348.153137 585.474243,345.437805 581.801331,344.144897 
	C580.991455,343.859833 580.507996,342.647247 579.874268,341.861755 
	C580.860107,341.249237 581.786621,340.270905 582.843994,340.099335 
	C585.131897,339.728088 587.532776,340.013428 589.803223,339.584595 
	C592.974365,338.985626 595.437927,339.173035 595.830994,344.027435 
	C601.440186,339.431458 606.927979,337.193939 613.576538,341.025635 
	C613.971558,342.366455 613.943665,343.517639 613.915771,344.668793 
z"/>
<path fill="#FDFDFC" opacity="1.000000" stroke="none" 
	d="
M614.352905,344.790588 
	C613.943665,343.517639 613.971558,342.366455 613.995972,340.872314 
	C616.104980,340.233063 618.217468,339.936829 620.910156,339.559235 
	C621.127686,335.633820 621.351746,331.590485 621.590393,327.284607 
	C624.367554,327.284607 626.789978,327.284607 629.764893,327.284607 
	C629.764893,331.259369 629.764893,335.169952 629.764893,339.682068 
	C634.012512,339.682068 637.737366,339.682068 641.870728,339.682068 
	C641.958374,341.658875 642.020264,343.053497 642.103760,344.936523 
	C638.108521,344.936523 634.520874,344.936523 630.758667,344.936523 
	C630.758667,354.613373 630.575439,363.830383 630.850586,373.033722 
	C630.957642,376.615204 633.791809,378.001892 637.188049,377.956024 
	C638.839050,377.933746 640.487549,377.724701 643.836304,377.471924 
	C642.466858,379.563385 641.860352,381.654877 640.753906,381.965546 
	C637.140259,382.980133 633.347412,383.811829 629.617554,383.837341 
	C625.370911,383.866394 622.207458,381.431122 621.825989,376.953461 
	C621.319946,371.012573 621.255981,365.030182 621.118652,359.062988 
	C621.016235,354.612183 621.098572,350.157135 621.098572,345.358459 
	C618.660522,345.186066 616.725281,345.049255 614.352905,344.790588 
z"/>
<path fill="#A0AB8A" opacity="1.000000" stroke="none" 
	d="
M407.153107,85.248734 
	C420.721863,66.551605 437.792114,52.999054 459.352722,45.366974 
	C485.923920,35.961246 512.344360,36.525223 538.253723,47.515419 
	C565.402771,59.031471 585.040833,78.670822 596.164124,105.879578 
	C608.817261,136.830582 607.438293,167.767242 592.051270,197.597061 
	C579.224487,222.463593 559.147705,239.428818 533.061279,249.364716 
	C532.444641,249.599579 531.806580,249.812683 531.159241,249.920944 
	C530.688660,249.999619 530.186279,249.888336 528.974426,249.822403 
	C528.974426,243.068588 528.664368,236.302490 529.212524,229.606659 
	C529.335510,228.104874 532.294312,226.519592 534.232788,225.533203 
	C547.117920,218.976761 556.881165,209.603195 560.622009,195.288605 
	C561.899780,190.399017 561.815063,185.102310 561.938416,179.981628 
	C562.010010,177.009811 560.046692,175.298172 556.961792,175.939560 
	C541.820374,179.087616 528.507446,185.147003 522.847595,200.888611 
	C520.933777,206.211365 520.458191,212.264145 520.399414,217.994324 
	C520.293762,228.294861 520.918396,238.607651 521.414551,248.906830 
	C521.571472,252.163864 520.013611,253.367798 517.148865,253.715881 
	C513.024963,254.216949 508.870087,254.570618 504.796021,255.343307 
	C500.958710,256.071075 499.777710,254.715759 499.824982,250.946503 
	C499.977570,238.785446 499.877289,226.621246 499.877106,214.458252 
	C499.876984,205.794205 499.964600,197.128937 499.838165,188.466766 
	C499.793671,185.418213 500.718262,184.238174 503.969299,183.739075 
	C520.696716,181.170944 530.461975,172.466583 532.631897,158.283386 
	C533.231079,154.367081 533.001099,150.311752 533.012024,146.319809 
	C533.049988,132.490753 532.880737,118.659088 533.113037,104.833839 
	C533.184937,100.552536 531.776245,97.464828 527.878052,96.236839 
	C521.096497,94.100540 514.248413,91.876823 507.257233,90.770584 
	C494.994385,88.830170 482.734528,89.178825 470.688995,92.964821 
	C461.857880,95.740509 459.123810,99.034790 459.123505,108.166466 
	C459.123016,122.995323 459.115967,137.824173 459.125519,152.653030 
	C459.135529,168.150894 467.981049,179.273605 483.083679,182.760086 
	C485.029053,183.209183 487.190887,183.138855 488.916656,183.989975 
	C490.323669,184.683884 492.199524,186.386765 492.211456,187.657852 
	C492.412170,208.982697 492.324524,230.310074 492.381470,251.636673 
	C492.389832,254.765579 491.004028,255.825470 488.088989,255.372803 
	C487.762177,255.322037 487.423462,255.352020 487.090820,255.334198 
	C470.623352,254.451736 470.530762,254.450821 470.670715,238.239319 
	C470.723724,232.099655 471.146637,225.949921 471.686737,219.830017 
	C473.914124,194.593063 458.066467,179.962006 434.947998,175.929367 
	C431.083069,175.255188 430.130798,177.795074 429.956085,181.057159 
	C428.999176,198.919464 436.977112,212.055786 451.399048,221.808853 
	C452.912048,222.832047 454.344818,224.273895 456.023346,224.699814 
	C462.862793,226.435410 463.784424,231.152283 463.199402,237.181046 
	C462.801453,241.281860 463.123352,245.452515 463.123352,250.600082 
	C434.181427,240.918198 412.806091,223.265625 399.729767,196.877563 
	C380.820496,158.718613 383.720306,121.312767 407.153107,85.248734 
z"/>
<path fill="#A1AC8B" opacity="1.000000" stroke="none" 
	d="
M474.599823,110.309662 
	C493.316193,122.458031 509.476929,136.565475 518.444946,157.239807 
	C519.859802,160.501511 521.631042,166.238785 520.186951,167.603439 
	C516.293701,171.282684 510.787170,173.289764 505.796112,175.702332 
	C505.422760,175.882812 503.433472,174.125671 503.249084,173.082947 
	C499.986694,154.634720 488.664825,141.978027 473.382507,132.665436 
	C468.074158,129.430679 465.890656,126.043968 466.528381,120.039009 
	C466.994812,115.646965 466.619690,111.165558 466.619690,105.708237 
	C469.805878,107.539810 472.048157,108.828804 474.599823,110.309662 
z"/>
<path fill="#A1AC8B" opacity="1.000000" stroke="none" 
	d="
M469.139740,164.538162 
	C464.838501,155.806854 467.239471,147.042313 466.649689,138.138306 
	C477.762238,141.699234 496.824158,161.885803 495.537811,176.816650 
	C485.056641,176.574966 475.468109,174.681778 469.139740,164.538162 
z"/>
<path fill="#A1AC8B" opacity="1.000000" stroke="none" 
	d="
M489.504791,111.495392 
	C484.031342,107.756645 478.832458,104.250435 472.925812,100.266907 
	C489.201874,94.932877 504.522125,97.041832 520.042542,100.578468 
	C512.914917,106.381729 506.239532,111.907761 499.406036,117.230865 
	C498.767181,117.728546 496.900269,117.286903 496.000671,116.686440 
	C493.802856,115.219406 491.837982,113.403435 489.504791,111.495392 
z"/>
<path fill="#A3AD8D" opacity="1.000000" stroke="none" 
	d="
M504.455902,123.210648 
	C510.055725,116.197540 517.074097,111.686951 525.386475,107.678375 
	C525.386475,123.044022 525.386475,137.723602 525.386475,151.487823 
	C518.684692,142.595291 511.497131,133.058197 504.455902,123.210648 
z"/>
<path fill="#A1AC8B" opacity="1.000000" stroke="none" 
	d="
M439.616638,197.192413 
	C438.484924,192.885818 437.523010,188.928345 436.496277,184.703995 
	C452.374451,186.164352 467.473114,199.857773 463.623383,219.935532 
	C452.778870,215.269608 444.414673,208.481522 439.616638,197.192413 
z"/>
<path fill="#A1AC8B" opacity="1.000000" stroke="none" 
	d="
M545.903198,207.858459 
	C540.270508,212.299957 534.853760,216.455429 528.955750,220.980087 
	C524.526672,203.206970 535.622131,188.264771 554.841003,184.405792 
	C555.172363,193.426651 551.696289,200.881546 545.903198,207.858459 
z"/>
<path fill="#A3AD8D" opacity="1.000000" stroke="none" 
	d="
M355.760071,337.102051 
	C358.489868,343.551300 360.984283,349.785156 363.755554,356.710815 
	C358.023987,356.710815 353.206879,356.710815 347.291626,356.710815 
	C350.160767,349.802307 352.842743,343.344452 355.760071,337.102051 
z"/>
<path fill="#A1AC8B" opacity="1.000000" stroke="none" 
	d="
M555.796143,361.722656 
	C557.547485,361.159821 558.949890,360.748383 560.987854,360.150482 
	C560.987854,363.646576 560.818298,366.742828 561.026978,369.813354 
	C561.352417,374.602417 558.373413,377.063934 554.525757,377.783142 
	C552.208069,378.216370 548.449768,377.294495 547.252136,375.616180 
	C546.005676,373.869537 546.068604,369.776093 547.345459,367.975861 
	C549.209106,365.348328 552.668152,363.852356 555.796143,361.722656 
z"/>
</svg>